<mxfile host="app.diagrams.net" modified="2023-04-26T16:33:38.453Z" agent="5.0 (Windows NT 10.0; Win64; x64) AppleWebKit/537.36 (KHTML, like Gecko) Chrome/112.0.0.0 Safari/537.36" etag="hqeL-rAyfppwN_zwzbFv" version="20.7.4" type="github">
  <diagram id="C5RBs43oDa-KdzZeNtuy" name="Page-1">
    <mxGraphModel dx="1050" dy="541" grid="1" gridSize="10" guides="1" tooltips="1" connect="1" arrows="1" fold="1" page="1" pageScale="1" pageWidth="827" pageHeight="1169" math="0" shadow="0">
      <root>
        <mxCell id="WIyWlLk6GJQsqaUBKTNV-0" />
        <mxCell id="WIyWlLk6GJQsqaUBKTNV-1" parent="WIyWlLk6GJQsqaUBKTNV-0" />
        <mxCell id="H_IonGy6lu5l5pVGf9lK-6" value="" style="edgeStyle=orthogonalEdgeStyle;rounded=0;orthogonalLoop=1;jettySize=auto;html=1;fontFamily=Times New Roman;fontSize=12;endArrow=none;endFill=0;" edge="1" parent="WIyWlLk6GJQsqaUBKTNV-1" source="H_IonGy6lu5l5pVGf9lK-0" target="H_IonGy6lu5l5pVGf9lK-5">
          <mxGeometry relative="1" as="geometry" />
        </mxCell>
        <mxCell id="H_IonGy6lu5l5pVGf9lK-0" value="&lt;font style=&quot;font-size: 12px;&quot; face=&quot;Times New Roman&quot;&gt;Начало&lt;/font&gt;" style="ellipse;whiteSpace=wrap;html=1;" vertex="1" parent="WIyWlLk6GJQsqaUBKTNV-1">
          <mxGeometry x="144.5" y="10" width="79" height="40" as="geometry" />
        </mxCell>
        <mxCell id="H_IonGy6lu5l5pVGf9lK-13" value="" style="edgeStyle=orthogonalEdgeStyle;rounded=0;orthogonalLoop=1;jettySize=auto;html=1;fontFamily=Times New Roman;fontSize=12;endArrow=none;endFill=0;" edge="1" parent="WIyWlLk6GJQsqaUBKTNV-1" source="H_IonGy6lu5l5pVGf9lK-1" target="H_IonGy6lu5l5pVGf9lK-12">
          <mxGeometry relative="1" as="geometry" />
        </mxCell>
        <mxCell id="H_IonGy6lu5l5pVGf9lK-1" value="&lt;font style=&quot;font-size: 12px;&quot;&gt;&quot;Результаты вычислений: &quot;&lt;/font&gt;" style="shape=parallelogram;perimeter=parallelogramPerimeter;whiteSpace=wrap;html=1;fixedSize=1;fontFamily=Times New Roman;fontSize=13;" vertex="1" parent="WIyWlLk6GJQsqaUBKTNV-1">
          <mxGeometry x="93" y="120" width="181" height="40" as="geometry" />
        </mxCell>
        <mxCell id="H_IonGy6lu5l5pVGf9lK-11" value="" style="edgeStyle=orthogonalEdgeStyle;rounded=0;orthogonalLoop=1;jettySize=auto;html=1;fontFamily=Times New Roman;fontSize=12;endArrow=none;endFill=0;" edge="1" parent="WIyWlLk6GJQsqaUBKTNV-1" source="H_IonGy6lu5l5pVGf9lK-5" target="H_IonGy6lu5l5pVGf9lK-1">
          <mxGeometry relative="1" as="geometry">
            <Array as="points">
              <mxPoint x="183" y="120" />
              <mxPoint x="183" y="120" />
            </Array>
          </mxGeometry>
        </mxCell>
        <mxCell id="H_IonGy6lu5l5pVGf9lK-5" value="x = 0.5" style="rounded=0;whiteSpace=wrap;html=1;fontFamily=Times New Roman;fontSize=12;" vertex="1" parent="WIyWlLk6GJQsqaUBKTNV-1">
          <mxGeometry x="136" y="70" width="96" height="30" as="geometry" />
        </mxCell>
        <mxCell id="H_IonGy6lu5l5pVGf9lK-12" value="&quot;x&amp;nbsp; &amp;nbsp; y&amp;nbsp; &amp;nbsp; z&quot;" style="shape=parallelogram;perimeter=parallelogramPerimeter;whiteSpace=wrap;html=1;fixedSize=1;fontFamily=Times New Roman;fontSize=12;" vertex="1" parent="WIyWlLk6GJQsqaUBKTNV-1">
          <mxGeometry x="124" y="180" width="120" height="30" as="geometry" />
        </mxCell>
        <mxCell id="H_IonGy6lu5l5pVGf9lK-24" style="edgeStyle=orthogonalEdgeStyle;rounded=0;orthogonalLoop=1;jettySize=auto;html=1;exitX=1;exitY=0.5;exitDx=0;exitDy=0;fontFamily=Times New Roman;fontSize=12;endArrow=none;endFill=0;entryX=0.5;entryY=0;entryDx=0;entryDy=0;" edge="1" parent="WIyWlLk6GJQsqaUBKTNV-1" source="H_IonGy6lu5l5pVGf9lK-16" target="H_IonGy6lu5l5pVGf9lK-29">
          <mxGeometry relative="1" as="geometry">
            <mxPoint x="320" y="290" as="targetPoint" />
            <Array as="points">
              <mxPoint x="300" y="260" />
              <mxPoint x="300" y="310" />
            </Array>
          </mxGeometry>
        </mxCell>
        <mxCell id="H_IonGy6lu5l5pVGf9lK-26" style="edgeStyle=orthogonalEdgeStyle;rounded=0;orthogonalLoop=1;jettySize=auto;html=1;exitX=0;exitY=0.5;exitDx=0;exitDy=0;fontFamily=Times New Roman;fontSize=12;endArrow=none;endFill=0;entryX=0.5;entryY=0;entryDx=0;entryDy=0;" edge="1" parent="WIyWlLk6GJQsqaUBKTNV-1" source="H_IonGy6lu5l5pVGf9lK-16" target="H_IonGy6lu5l5pVGf9lK-71">
          <mxGeometry relative="1" as="geometry">
            <mxPoint x="40" y="690" as="targetPoint" />
            <Array as="points">
              <mxPoint x="40" y="260" />
              <mxPoint x="40" y="650" />
              <mxPoint x="191" y="650" />
            </Array>
          </mxGeometry>
        </mxCell>
        <mxCell id="H_IonGy6lu5l5pVGf9lK-70" value="" style="edgeStyle=orthogonalEdgeStyle;rounded=0;orthogonalLoop=1;jettySize=auto;html=1;fontFamily=Times New Roman;fontSize=12;endArrow=none;endFill=0;" edge="1" parent="WIyWlLk6GJQsqaUBKTNV-1" source="H_IonGy6lu5l5pVGf9lK-16" target="H_IonGy6lu5l5pVGf9lK-12">
          <mxGeometry relative="1" as="geometry">
            <Array as="points">
              <mxPoint x="180" y="220" />
              <mxPoint x="180" y="220" />
            </Array>
          </mxGeometry>
        </mxCell>
        <mxCell id="H_IonGy6lu5l5pVGf9lK-16" value="x &amp;lt; (1.5 + 0.1 / 2)" style="rhombus;whiteSpace=wrap;html=1;fontFamily=Times New Roman;fontSize=12;" vertex="1" parent="WIyWlLk6GJQsqaUBKTNV-1">
          <mxGeometry x="107" y="230" width="146" height="60" as="geometry" />
        </mxCell>
        <mxCell id="H_IonGy6lu5l5pVGf9lK-27" value="Да" style="rounded=0;whiteSpace=wrap;html=1;fontFamily=Times New Roman;fontSize=12;fillColor=none;strokeColor=none;" vertex="1" parent="WIyWlLk6GJQsqaUBKTNV-1">
          <mxGeometry x="264" y="240" width="40" height="20" as="geometry" />
        </mxCell>
        <mxCell id="H_IonGy6lu5l5pVGf9lK-28" value="Нет" style="rounded=0;whiteSpace=wrap;html=1;fontFamily=Times New Roman;fontSize=12;strokeColor=none;fillColor=none;" vertex="1" parent="WIyWlLk6GJQsqaUBKTNV-1">
          <mxGeometry x="40" y="240" width="40" height="20" as="geometry" />
        </mxCell>
        <mxCell id="H_IonGy6lu5l5pVGf9lK-33" style="edgeStyle=orthogonalEdgeStyle;rounded=0;orthogonalLoop=1;jettySize=auto;html=1;exitX=0.5;exitY=1;exitDx=0;exitDy=0;entryX=0.5;entryY=0;entryDx=0;entryDy=0;fontFamily=Times New Roman;fontSize=12;endArrow=none;endFill=0;" edge="1" parent="WIyWlLk6GJQsqaUBKTNV-1" source="H_IonGy6lu5l5pVGf9lK-29" target="H_IonGy6lu5l5pVGf9lK-32">
          <mxGeometry relative="1" as="geometry" />
        </mxCell>
        <mxCell id="H_IonGy6lu5l5pVGf9lK-29" value="y = cbrt(x) - 0.2 * x + (pow(x, 2) / (x + 1))" style="rounded=0;whiteSpace=wrap;html=1;fontFamily=Times New Roman;fontSize=12;" vertex="1" parent="WIyWlLk6GJQsqaUBKTNV-1">
          <mxGeometry x="184" y="310" width="213" height="30" as="geometry" />
        </mxCell>
        <mxCell id="H_IonGy6lu5l5pVGf9lK-35" style="edgeStyle=orthogonalEdgeStyle;rounded=0;orthogonalLoop=1;jettySize=auto;html=1;exitX=1;exitY=0.5;exitDx=0;exitDy=0;fontFamily=Times New Roman;fontSize=12;endArrow=none;endFill=0;entryX=0.5;entryY=0;entryDx=0;entryDy=0;" edge="1" parent="WIyWlLk6GJQsqaUBKTNV-1" source="H_IonGy6lu5l5pVGf9lK-32" target="H_IonGy6lu5l5pVGf9lK-44">
          <mxGeometry relative="1" as="geometry">
            <mxPoint x="484.48275862068976" y="440.0051853772361" as="targetPoint" />
          </mxGeometry>
        </mxCell>
        <mxCell id="H_IonGy6lu5l5pVGf9lK-37" style="edgeStyle=orthogonalEdgeStyle;rounded=0;orthogonalLoop=1;jettySize=auto;html=1;exitX=0;exitY=0.5;exitDx=0;exitDy=0;fontFamily=Times New Roman;fontSize=12;endArrow=none;endFill=0;entryX=0.5;entryY=0;entryDx=0;entryDy=0;" edge="1" parent="WIyWlLk6GJQsqaUBKTNV-1" source="H_IonGy6lu5l5pVGf9lK-32" target="H_IonGy6lu5l5pVGf9lK-43">
          <mxGeometry relative="1" as="geometry">
            <mxPoint x="184.48275862068965" y="420.0051853772361" as="targetPoint" />
            <Array as="points">
              <mxPoint x="164" y="380" />
            </Array>
          </mxGeometry>
        </mxCell>
        <mxCell id="H_IonGy6lu5l5pVGf9lK-32" value="y &amp;gt; 1" style="rhombus;whiteSpace=wrap;html=1;fontFamily=Times New Roman;fontSize=12;" vertex="1" parent="WIyWlLk6GJQsqaUBKTNV-1">
          <mxGeometry x="231" y="360" width="133" height="40" as="geometry" />
        </mxCell>
        <mxCell id="H_IonGy6lu5l5pVGf9lK-38" value="Да" style="rounded=0;whiteSpace=wrap;html=1;fontFamily=Times New Roman;fontSize=12;fillColor=none;strokeColor=none;" vertex="1" parent="WIyWlLk6GJQsqaUBKTNV-1">
          <mxGeometry x="160" y="360" width="40" height="20" as="geometry" />
        </mxCell>
        <mxCell id="H_IonGy6lu5l5pVGf9lK-42" value="Нет" style="rounded=0;whiteSpace=wrap;html=1;fontFamily=Times New Roman;fontSize=12;fillColor=none;strokeColor=none;" vertex="1" parent="WIyWlLk6GJQsqaUBKTNV-1">
          <mxGeometry x="394" y="360" width="40" height="20" as="geometry" />
        </mxCell>
        <mxCell id="H_IonGy6lu5l5pVGf9lK-63" style="edgeStyle=orthogonalEdgeStyle;rounded=0;orthogonalLoop=1;jettySize=auto;html=1;exitX=0.5;exitY=1;exitDx=0;exitDy=0;fontFamily=Times New Roman;fontSize=12;endArrow=none;endFill=0;entryX=0.5;entryY=0;entryDx=0;entryDy=0;" edge="1" parent="WIyWlLk6GJQsqaUBKTNV-1" source="H_IonGy6lu5l5pVGf9lK-43" target="H_IonGy6lu5l5pVGf9lK-65">
          <mxGeometry relative="1" as="geometry">
            <mxPoint x="330" y="647" as="targetPoint" />
            <Array as="points">
              <mxPoint x="164" y="550" />
              <mxPoint x="330" y="550" />
              <mxPoint x="330" y="585" />
            </Array>
          </mxGeometry>
        </mxCell>
        <mxCell id="H_IonGy6lu5l5pVGf9lK-43" value="z = cbrt(fabs(y - 0.3 * (pow(y, 2) / (y + 1))))" style="rounded=0;whiteSpace=wrap;html=1;fontFamily=Times New Roman;fontSize=12;" vertex="1" parent="WIyWlLk6GJQsqaUBKTNV-1">
          <mxGeometry x="54" y="420" width="220" height="30" as="geometry" />
        </mxCell>
        <mxCell id="H_IonGy6lu5l5pVGf9lK-48" style="edgeStyle=orthogonalEdgeStyle;rounded=0;orthogonalLoop=1;jettySize=auto;html=1;exitX=0;exitY=0.5;exitDx=0;exitDy=0;fontFamily=Times New Roman;fontSize=12;endArrow=none;endFill=0;entryX=0.25;entryY=0;entryDx=0;entryDy=0;" edge="1" parent="WIyWlLk6GJQsqaUBKTNV-1" source="H_IonGy6lu5l5pVGf9lK-44" target="H_IonGy6lu5l5pVGf9lK-53">
          <mxGeometry relative="1" as="geometry">
            <mxPoint x="312" y="520" as="targetPoint" />
          </mxGeometry>
        </mxCell>
        <mxCell id="H_IonGy6lu5l5pVGf9lK-50" style="edgeStyle=orthogonalEdgeStyle;rounded=0;orthogonalLoop=1;jettySize=auto;html=1;exitX=1;exitY=0.5;exitDx=0;exitDy=0;fontFamily=Times New Roman;fontSize=12;endArrow=none;endFill=0;entryX=0.5;entryY=0;entryDx=0;entryDy=0;" edge="1" parent="WIyWlLk6GJQsqaUBKTNV-1" source="H_IonGy6lu5l5pVGf9lK-44" target="H_IonGy6lu5l5pVGf9lK-54">
          <mxGeometry relative="1" as="geometry">
            <mxPoint x="572.0285714285715" y="511.88829215896897" as="targetPoint" />
            <Array as="points">
              <mxPoint x="542" y="440" />
            </Array>
          </mxGeometry>
        </mxCell>
        <mxCell id="H_IonGy6lu5l5pVGf9lK-44" value="|y| &amp;lt;= 1" style="rhombus;whiteSpace=wrap;html=1;fontFamily=Times New Roman;fontSize=12;" vertex="1" parent="WIyWlLk6GJQsqaUBKTNV-1">
          <mxGeometry x="366" y="420" width="133" height="40" as="geometry" />
        </mxCell>
        <mxCell id="H_IonGy6lu5l5pVGf9lK-51" value="Да" style="rounded=0;whiteSpace=wrap;html=1;fontFamily=Times New Roman;fontSize=12;fillColor=none;strokeColor=none;" vertex="1" parent="WIyWlLk6GJQsqaUBKTNV-1">
          <mxGeometry x="316" y="420" width="40" height="20" as="geometry" />
        </mxCell>
        <mxCell id="H_IonGy6lu5l5pVGf9lK-52" value="Нет" style="rounded=0;whiteSpace=wrap;html=1;fontFamily=Times New Roman;fontSize=12;fillColor=none;strokeColor=none;" vertex="1" parent="WIyWlLk6GJQsqaUBKTNV-1">
          <mxGeometry x="499" y="420" width="40" height="20" as="geometry" />
        </mxCell>
        <mxCell id="H_IonGy6lu5l5pVGf9lK-59" style="edgeStyle=orthogonalEdgeStyle;rounded=0;orthogonalLoop=1;jettySize=auto;html=1;exitX=0.25;exitY=1;exitDx=0;exitDy=0;fontFamily=Times New Roman;fontSize=12;endArrow=classicThin;endFill=1;" edge="1" parent="WIyWlLk6GJQsqaUBKTNV-1" source="H_IonGy6lu5l5pVGf9lK-53">
          <mxGeometry relative="1" as="geometry">
            <mxPoint x="330" y="550" as="targetPoint" />
            <Array as="points">
              <mxPoint x="315" y="520" />
              <mxPoint x="440" y="520" />
            </Array>
          </mxGeometry>
        </mxCell>
        <mxCell id="H_IonGy6lu5l5pVGf9lK-53" value="z = cos(y)" style="rounded=0;whiteSpace=wrap;html=1;fontFamily=Times New Roman;fontSize=12;" vertex="1" parent="WIyWlLk6GJQsqaUBKTNV-1">
          <mxGeometry x="293" y="470" width="86" height="30" as="geometry" />
        </mxCell>
        <mxCell id="H_IonGy6lu5l5pVGf9lK-61" style="edgeStyle=orthogonalEdgeStyle;rounded=0;orthogonalLoop=1;jettySize=auto;html=1;exitX=0.5;exitY=1;exitDx=0;exitDy=0;fontFamily=Times New Roman;fontSize=12;endArrow=classicThin;endFill=1;" edge="1" parent="WIyWlLk6GJQsqaUBKTNV-1" source="H_IonGy6lu5l5pVGf9lK-54">
          <mxGeometry relative="1" as="geometry">
            <mxPoint x="440" y="520" as="targetPoint" />
            <Array as="points">
              <mxPoint x="542" y="520" />
            </Array>
          </mxGeometry>
        </mxCell>
        <mxCell id="H_IonGy6lu5l5pVGf9lK-54" value="z = 0" style="rounded=0;whiteSpace=wrap;html=1;fontFamily=Times New Roman;fontSize=12;" vertex="1" parent="WIyWlLk6GJQsqaUBKTNV-1">
          <mxGeometry x="509" y="470" width="66" height="30" as="geometry" />
        </mxCell>
        <mxCell id="H_IonGy6lu5l5pVGf9lK-67" style="edgeStyle=orthogonalEdgeStyle;rounded=0;orthogonalLoop=1;jettySize=auto;html=1;exitX=0.5;exitY=1;exitDx=0;exitDy=0;entryX=0.5;entryY=0;entryDx=0;entryDy=0;fontFamily=Times New Roman;fontSize=12;endArrow=none;endFill=0;" edge="1" parent="WIyWlLk6GJQsqaUBKTNV-1" source="H_IonGy6lu5l5pVGf9lK-65" target="H_IonGy6lu5l5pVGf9lK-66">
          <mxGeometry relative="1" as="geometry" />
        </mxCell>
        <mxCell id="H_IonGy6lu5l5pVGf9lK-65" value="x&amp;nbsp; &amp;nbsp; y&amp;nbsp; &amp;nbsp; z" style="shape=parallelogram;perimeter=parallelogramPerimeter;whiteSpace=wrap;html=1;fixedSize=1;fontFamily=Times New Roman;fontSize=12;" vertex="1" parent="WIyWlLk6GJQsqaUBKTNV-1">
          <mxGeometry x="274" y="585" width="120" height="30" as="geometry" />
        </mxCell>
        <mxCell id="H_IonGy6lu5l5pVGf9lK-69" style="edgeStyle=orthogonalEdgeStyle;rounded=0;orthogonalLoop=1;jettySize=auto;html=1;exitX=0.5;exitY=1;exitDx=0;exitDy=0;fontFamily=Times New Roman;fontSize=12;endArrow=classicThin;endFill=1;" edge="1" parent="WIyWlLk6GJQsqaUBKTNV-1" source="H_IonGy6lu5l5pVGf9lK-66">
          <mxGeometry relative="1" as="geometry">
            <mxPoint x="180" y="220" as="targetPoint" />
            <Array as="points">
              <mxPoint x="334" y="680" />
              <mxPoint x="590" y="680" />
              <mxPoint x="590" y="220" />
            </Array>
          </mxGeometry>
        </mxCell>
        <mxCell id="H_IonGy6lu5l5pVGf9lK-66" value="x = x + 0.1" style="rounded=0;whiteSpace=wrap;html=1;fontFamily=Times New Roman;fontSize=12;" vertex="1" parent="WIyWlLk6GJQsqaUBKTNV-1">
          <mxGeometry x="291" y="630" width="86" height="30" as="geometry" />
        </mxCell>
        <mxCell id="H_IonGy6lu5l5pVGf9lK-71" value="&lt;font face=&quot;Times New Roman&quot;&gt;Стоп&lt;/font&gt;" style="ellipse;whiteSpace=wrap;html=1;" vertex="1" parent="WIyWlLk6GJQsqaUBKTNV-1">
          <mxGeometry x="152" y="700" width="79" height="40" as="geometry" />
        </mxCell>
      </root>
    </mxGraphModel>
  </diagram>
</mxfile>
